ffmpeg started on 2025-05-12 at 17:52:15
Report written to "D:\Convert\FFMetrics\reports\psnr_report-6.txt"
Log level: 32
Command line:
ffmpeg -hide_banner -nostdin -i "G:\\\xc0\xed\xe8\xec\xe5\\\xce\xed\xe3\xee\xe8\xed\xe3\xe8\\!_35_\xcb\xe5\xf2\xee_2024\\DreamCast\\\xce\xef\xe5\xf0\xe0\xf6\xe8\xff - \xd1\xe5\xec\xe5\xe9\xea\xe0 \xa8\xe4\xe7\xe0\xea\xf3\xf0\xe0\\[DC] Yozakura-san Chi no Daisakusen - 23_Telegram_HEVC.mkv" -i "G:\\\xc0\xed\xe8\xec\xe5\\\xce\xed\xe3\xee\xe8\xed\xe3\xe8\\!_35_\xcb\xe5\xf2\xee_2024\\DreamCast\\\xce\xef\xe5\xf0\xe0\xf6\xe8\xff - \xd1\xe5\xec\xe5\xe9\xea\xe0 \xa8\xe4\xe7\xe0\xea\xf3\xf0\xe0\\[DC] Yozakura-san Chi no Daisakusen - 23_Telegram.mp4" -lavfi "[0:v]settb=AVTB,setpts=PTS-STARTPTS,format=pix_fmts=yuv420p10,fps=24000/1001,scale=1920:1080:flags=bicubic[main];[1:v]settb=AVTB,setpts=PTS-STARTPTS,format=pix_fmts=yuv420p,fps=24000/1001,scale=1920:1080:flags=bicubic[ref];[main][ref]psnr=eof_action=endall:stats_file='D\\:/Convert/FFMetrics/logs/psnr_logfile-6.txt'" -f null -
Input #0, matroska,webm, from 'G:\Аниме\Онгоинги\!_35_Лето_2024\DreamCast\Операция - Семейка Ёдзакура\[DC] Yozakura-san Chi no Daisakusen - 23_Telegram_HEVC.mkv':
  Metadata:
    COMPATIBLE_BRANDS: isomiso2avc1mp41
    MAJOR_BRAND     : isom
    MINOR_VERSION   : 512
    ENCODER         : Lavf61.7.100
  Duration: 00:24:09.64, start: -0.021000, bitrate: 1743 kb/s
  Stream #0:0: Video: hevc (Main 10), yuv420p10le(tv, bt709, progressive), 1920x1080 [SAR 1:1 DAR 16:9], 23.98 fps, 23.98 tbr, 1k tbn (default)
      Metadata:
        HANDLER_NAME    : VideoHandler
        VENDOR_ID       : [0][0][0][0]
        ENCODER         : Lavc61.19.100 libx265
        BPS             : 1545843
        DURATION        : 00:24:09.531708333
        NUMBER_OF_FRAMES: 34754
        NUMBER_OF_BYTES : 280093499
        _STATISTICS_WRITING_APP: mkvpropedit v66.0.0 ('Josie') 64-bit
        _STATISTICS_WRITING_DATE_UTC: 2025-05-08 17:25:26
        _STATISTICS_TAGS: BPS DURATION NUMBER_OF_FRAMES NUMBER_OF_BYTES
  Stream #0:1: Audio: aac (LC), 48000 Hz, stereo, fltp (default)
      Metadata:
        HANDLER_NAME    : SoundHandler
        VENDOR_ID       : [0][0][0][0]
        ENCODER         : Lavc61.19.100 aac
        BPS             : 193851
        DURATION        : 00:24:09.642000000
        NUMBER_OF_FRAMES: 67953
        NUMBER_OF_BYTES : 35126905
        _STATISTICS_WRITING_APP: mkvpropedit v66.0.0 ('Josie') 64-bit
        _STATISTICS_WRITING_DATE_UTC: 2025-05-08 17:25:26
        _STATISTICS_TAGS: BPS DURATION NUMBER_OF_FRAMES NUMBER_OF_BYTES
Input #1, mov,mp4,m4a,3gp,3g2,mj2, from 'G:\Аниме\Онгоинги\!_35_Лето_2024\DreamCast\Операция - Семейка Ёдзакура\[DC] Yozakura-san Chi no Daisakusen - 23_Telegram.mp4':
  Metadata:
    major_brand     : isom
    minor_version   : 512
    compatible_brands: isomiso2avc1mp41
    encoder         : Lavf61.1.100
  Duration: 00:24:09.60, start: 0.000000, bitrate: 3915 kb/s
  Stream #1:0[0x1](und): Video: h264 (High) (avc1 / 0x31637661), yuv420p(tv, bt709, progressive), 1920x1080 [SAR 1:1 DAR 16:9], 3767 kb/s, 23.98 fps, 23.98 tbr, 24k tbn (default)
      Metadata:
        handler_name    : VideoHandler
        vendor_id       : [0][0][0][0]
        encoder         : Lavc61.3.100 h264_qsv
  Stream #1:1[0x2](und): Audio: aac (HE-AACv2) (mp4a / 0x6134706D), 48000 Hz, stereo, fltp, 144 kb/s (default)
      Metadata:
        handler_name    : SoundHandler
        vendor_id       : [0][0][0][0]
Stream mapping:
  Stream #0:0 (hevc) -> settb:default
  Stream #1:0 (h264) -> settb:default
  psnr:default -> Stream #0:0 (wrapped_avframe)
  Stream #0:1 -> #0:1 (aac (native) -> pcm_s16le (native))
Output #0, null, to 'pipe:':
  Metadata:
    COMPATIBLE_BRANDS: isomiso2avc1mp41
    MAJOR_BRAND     : isom
    MINOR_VERSION   : 512
    encoder         : Lavf61.7.100
  Stream #0:0: Video: wrapped_avframe, yuv420p10le(tv, bt709, progressive), 1920x1080 [SAR 1:1 DAR 16:9], q=2-31, 200 kb/s, 23.98 fps, 23.98 tbn
      Metadata:
        encoder         : Lavc61.19.100 wrapped_avframe
  Stream #0:1: Audio: pcm_s16le, 48000 Hz, stereo, s16, 1536 kb/s (default)
      Metadata:
        HANDLER_NAME    : SoundHandler
        VENDOR_ID       : [0][0][0][0]
        _STATISTICS_TAGS: BPS DURATION NUMBER_OF_FRAMES NUMBER_OF_BYTES
        BPS             : 193851
        DURATION        : 00:24:09.642000000
        NUMBER_OF_FRAMES: 67953
        NUMBER_OF_BYTES : 35126905
        _STATISTICS_WRITING_APP: mkvpropedit v66.0.0 ('Josie') 64-bit
        _STATISTICS_WRITING_DATE_UTC: 2025-05-08 17:25:26
        encoder         : Lavc61.19.100 pcm_s16le
frame=  172 fps=0.0 q=-0.0 size=N/A time=00:00:07.17 bitrate=N/A speed=13.7x    frame=  305 fps=296 q=-0.0 size=N/A time=00:00:12.72 bitrate=N/A speed=12.3x    frame=  485 fps=312 q=-0.0 size=N/A time=00:00:20.22 bitrate=N/A speed=  13x    frame=  668 fps=324 q=-0.0 size=N/A time=00:00:27.86 bitrate=N/A speed=13.5x    frame=  896 fps=346 q=-0.0 size=N/A time=00:00:37.37 bitrate=N/A speed=14.4x    frame= 1107 fps=358 q=-0.0 size=N/A time=00:00:46.17 bitrate=N/A speed=14.9x    frame= 1308 fps=362 q=-0.0 size=N/A time=00:00:54.55 bitrate=N/A speed=15.1x    frame= 1532 fps=370 q=-0.0 size=N/A time=00:01:03.89 bitrate=N/A speed=15.4x    frame= 1684 fps=363 q=-0.0 size=N/A time=00:01:10.23 bitrate=N/A speed=15.1x    frame= 1868 fps=361 q=-0.0 size=N/A time=00:01:17.91 bitrate=N/A speed=15.1x    frame= 2075 fps=366 q=-0.0 size=N/A time=00:01:26.54 bitrate=N/A speed=15.3x    frame= 2260 fps=365 q=-0.0 size=N/A time=00:01:34.26 bitrate=N/A speed=15.2x    frame= 2479 fps=370 q=-0.0 size=N/A time=00:01:43.39 bitrate=N/A speed=15.4x    frame= 2692 fps=372 q=-0.0 size=N/A time=00:01:52.27 bitrate=N/A speed=15.5x    frame= 2968 fps=384 q=-0.0 size=N/A time=00:02:03.79 bitrate=N/A speed=  16x    frame= 3199 fps=387 q=-0.0 size=N/A time=00:02:13.42 bitrate=N/A speed=16.2x    frame= 3415 fps=390 q=-0.0 size=N/A time=00:02:22.43 bitrate=N/A speed=16.3x    frame= 3631 fps=391 q=-0.0 size=N/A time=00:02:31.44 bitrate=N/A speed=16.3x    frame= 3862 fps=394 q=-0.0 size=N/A time=00:02:41.07 bitrate=N/A speed=16.4x    frame= 4114 fps=399 q=-0.0 size=N/A time=00:02:51.58 bitrate=N/A speed=16.6x    frame= 4380 fps=404 q=-0.0 size=N/A time=00:03:02.68 bitrate=N/A speed=16.9x    frame= 4593 fps=405 q=-0.0 size=N/A time=00:03:11.56 bitrate=N/A speed=16.9x    frame= 4837 fps=407 q=-0.0 size=N/A time=00:03:21.74 bitrate=N/A speed=  17x    frame= 5088 fps=411 q=-0.0 size=N/A time=00:03:32.21 bitrate=N/A speed=17.1x    frame= 5358 fps=415 q=-0.0 size=N/A time=00:03:43.47 bitrate=N/A speed=17.3x    frame= 5578 fps=416 q=-0.0 size=N/A time=00:03:52.64 bitrate=N/A speed=17.3x    frame= 5819 fps=418 q=-0.0 size=N/A time=00:04:02.70 bitrate=N/A speed=17.4x    frame= 6034 fps=418 q=-0.0 size=N/A time=00:04:11.66 bitrate=N/A speed=17.4x    frame= 6274 fps=419 q=-0.0 size=N/A time=00:04:21.67 bitrate=N/A speed=17.5x    frame= 6487 fps=419 q=-0.0 size=N/A time=00:04:30.56 bitrate=N/A speed=17.5x    frame= 6729 fps=421 q=-0.0 size=N/A time=00:04:40.65 bitrate=N/A speed=17.5x    frame= 6968 fps=422 q=-0.0 size=N/A time=00:04:50.62 bitrate=N/A speed=17.6x    frame= 7221 fps=424 q=-0.0 size=N/A time=00:05:01.17 bitrate=N/A speed=17.7x    frame= 7454 fps=425 q=-0.0 size=N/A time=00:05:10.89 bitrate=N/A speed=17.7x    frame= 7662 fps=424 q=-0.0 size=N/A time=00:05:19.56 bitrate=N/A speed=17.7x    frame= 7912 fps=426 q=-0.0 size=N/A time=00:05:29.99 bitrate=N/A speed=17.8x    frame= 8081 fps=423 q=-0.0 size=N/A time=00:05:37.04 bitrate=N/A speed=17.7x    frame= 8276 fps=422 q=-0.0 size=N/A time=00:05:45.17 bitrate=N/A speed=17.6x    frame= 8487 fps=422 q=-0.0 size=N/A time=00:05:53.97 bitrate=N/A speed=17.6x    frame= 8730 fps=423 q=-0.0 size=N/A time=00:06:04.11 bitrate=N/A speed=17.6x    frame= 8904 fps=421 q=-0.0 size=N/A time=00:06:11.37 bitrate=N/A speed=17.6x    frame= 9083 fps=419 q=-0.0 size=N/A time=00:06:18.83 bitrate=N/A speed=17.5x    frame= 9327 fps=420 q=-0.0 size=N/A time=00:06:29.01 bitrate=N/A speed=17.5x    frame= 9510 fps=419 q=-0.0 size=N/A time=00:06:36.64 bitrate=N/A speed=17.5x    frame= 9700 fps=418 q=-0.0 size=N/A time=00:06:44.57 bitrate=N/A speed=17.4x    frame= 9918 fps=418 q=-0.0 size=N/A time=00:06:53.66 bitrate=N/A speed=17.4x    frame=10173 fps=420 q=-0.0 size=N/A time=00:07:04.29 bitrate=N/A speed=17.5x    frame=10417 fps=421 q=-0.0 size=N/A time=00:07:14.47 bitrate=N/A speed=17.5x    frame=10624 fps=421 q=-0.0 size=N/A time=00:07:23.10 bitrate=N/A speed=17.5x    frame=10854 fps=421 q=-0.0 size=N/A time=00:07:32.70 bitrate=N/A speed=17.6x    frame=11114 fps=422 q=-0.0 size=N/A time=00:07:43.54 bitrate=N/A speed=17.6x    frame=11356 fps=423 q=-0.0 size=N/A time=00:07:53.63 bitrate=N/A speed=17.7x    frame=11621 fps=425 q=-0.0 size=N/A time=00:08:04.69 bitrate=N/A speed=17.7x    frame=11873 fps=426 q=-0.0 size=N/A time=00:08:15.20 bitrate=N/A speed=17.8x    frame=12152 fps=428 q=-0.0 size=N/A time=00:08:26.83 bitrate=N/A speed=17.9x    frame=12395 fps=429 q=-0.0 size=N/A time=00:08:36.97 bitrate=N/A speed=17.9x    frame=12632 fps=430 q=-0.0 size=N/A time=00:08:46.85 bitrate=N/A speed=17.9x    frame=12836 fps=429 q=-0.0 size=N/A time=00:08:55.36 bitrate=N/A speed=17.9x    frame=13036 fps=428 q=-0.0 size=N/A time=00:09:03.70 bitrate=N/A speed=17.9x    frame=13271 fps=429 q=-0.0 size=N/A time=00:09:13.51 bitrate=N/A speed=17.9x    frame=13490 fps=429 q=-0.0 size=N/A time=00:09:22.64 bitrate=N/A speed=17.9x    frame=13727 fps=429 q=-0.0 size=N/A time=00:09:32.53 bitrate=N/A speed=17.9x    frame=13971 fps=430 q=-0.0 size=N/A time=00:09:42.70 bitrate=N/A speed=17.9x    frame=14192 fps=430 q=-0.0 size=N/A time=00:09:51.92 bitrate=N/A speed=17.9x    frame=14410 fps=430 q=-0.0 size=N/A time=00:10:01.01 bitrate=N/A speed=17.9x    frame=14639 fps=430 q=-0.0 size=N/A time=00:10:10.56 bitrate=N/A speed=17.9x    frame=14863 fps=430 q=-0.0 size=N/A time=00:10:19.91 bitrate=N/A speed=17.9x    frame=15077 fps=430 q=-0.0 size=N/A time=00:10:28.83 bitrate=N/A speed=17.9x    frame=15306 fps=430 q=-0.0 size=N/A time=00:10:38.38 bitrate=N/A speed=17.9x    frame=15540 fps=430 q=-0.0 size=N/A time=00:10:48.14 bitrate=N/A speed=17.9x    frame=15694 fps=428 q=-0.0 size=N/A time=00:10:54.57 bitrate=N/A speed=17.9x    frame=15866 fps=427 q=-0.0 size=N/A time=00:11:01.74 bitrate=N/A speed=17.8x    frame=16108 fps=428 q=-0.0 size=N/A time=00:11:11.83 bitrate=N/A speed=17.8x    frame=16330 fps=428 q=-0.0 size=N/A time=00:11:21.09 bitrate=N/A speed=17.8x    frame=16509 fps=427 q=-0.0 size=N/A time=00:11:28.56 bitrate=N/A speed=17.8x    frame=16690 fps=426 q=-0.0 size=N/A time=00:11:36.11 bitrate=N/A speed=17.8x    frame=16851 fps=424 q=-0.0 size=N/A time=00:11:42.82 bitrate=N/A speed=17.7x    frame=17095 fps=425 q=-0.0 size=N/A time=00:11:53.00 bitrate=N/A speed=17.7x    frame=17303 fps=425 q=-0.0 size=N/A time=00:12:01.67 bitrate=N/A speed=17.7x    frame=17553 fps=425 q=-0.0 size=N/A time=00:12:12.10 bitrate=N/A speed=17.7x    frame=17784 fps=426 q=-0.0 size=N/A time=00:12:21.74 bitrate=N/A speed=17.8x    frame=18029 fps=426 q=-0.0 size=N/A time=00:12:31.95 bitrate=N/A speed=17.8x    frame=18272 fps=427 q=-0.0 size=N/A time=00:12:42.09 bitrate=N/A speed=17.8x    frame=18490 fps=427 q=-0.0 size=N/A time=00:12:51.18 bitrate=N/A speed=17.8x    frame=18710 fps=427 q=-0.0 size=N/A time=00:13:00.36 bitrate=N/A speed=17.8x    frame=18975 fps=428 q=-0.0 size=N/A time=00:13:11.41 bitrate=N/A speed=17.8x    frame=19213 fps=428 q=-0.0 size=N/A time=00:13:21.34 bitrate=N/A speed=17.9x    frame=19426 fps=428 q=-0.0 size=N/A time=00:13:30.22 bitrate=N/A speed=17.8x    frame=19662 fps=428 q=-0.0 size=N/A time=00:13:40.06 bitrate=N/A speed=17.9x    frame=19908 fps=429 q=-0.0 size=N/A time=00:13:50.32 bitrate=N/A speed=17.9x    frame=20136 fps=429 q=-0.0 size=N/A time=00:13:59.83 bitrate=N/A speed=17.9x    frame=20411 fps=430 q=-0.0 size=N/A time=00:14:11.30 bitrate=N/A speed=17.9x    frame=20619 fps=430 q=-0.0 size=N/A time=00:14:19.98 bitrate=N/A speed=17.9x    frame=20863 fps=430 q=-0.0 size=N/A time=00:14:30.16 bitrate=N/A speed=17.9x    frame=21081 fps=430 q=-0.0 size=N/A time=00:14:39.25 bitrate=N/A speed=17.9x    frame=21310 fps=430 q=-0.0 size=N/A time=00:14:48.80 bitrate=N/A speed=17.9x    frame=21547 fps=431 q=-0.0 size=N/A time=00:14:58.68 bitrate=N/A speed=  18x    frame=21773 fps=431 q=-0.0 size=N/A time=00:15:08.11 bitrate=N/A speed=  18x    frame=22034 fps=431 q=-0.0 size=N/A time=00:15:19.00 bitrate=N/A speed=  18x    frame=22233 fps=431 q=-0.0 size=N/A time=00:15:27.30 bitrate=N/A speed=  18x    frame=22453 fps=431 q=-0.0 size=N/A time=00:15:36.47 bitrate=N/A speed=  18x    frame=22721 fps=432 q=-0.0 size=N/A time=00:15:47.65 bitrate=N/A speed=  18x    frame=22962 fps=432 q=-0.0 size=N/A time=00:15:57.70 bitrate=N/A speed=  18x    frame=23177 fps=432 q=-0.0 size=N/A time=00:16:06.67 bitrate=N/A speed=  18x    frame=23394 fps=432 q=-0.0 size=N/A time=00:16:15.72 bitrate=N/A speed=  18x    frame=23644 fps=432 q=-0.0 size=N/A time=00:16:26.15 bitrate=N/A speed=  18x    frame=23908 fps=433 q=-0.0 size=N/A time=00:16:37.16 bitrate=N/A speed=18.1x    frame=24145 fps=433 q=-0.0 size=N/A time=00:16:47.04 bitrate=N/A speed=18.1x    frame=24355 fps=433 q=-0.0 size=N/A time=00:16:55.80 bitrate=N/A speed=18.1x    frame=24563 fps=433 q=-0.0 size=N/A time=00:17:04.48 bitrate=N/A speed=18.1x    frame=24817 fps=433 q=-0.0 size=N/A time=00:17:15.07 bitrate=N/A speed=18.1x    frame=25040 fps=433 q=-0.0 size=N/A time=00:17:24.37 bitrate=N/A speed=18.1x    frame=25272 fps=433 q=-0.0 size=N/A time=00:17:34.05 bitrate=N/A speed=18.1x    frame=25501 fps=433 q=-0.0 size=N/A time=00:17:43.60 bitrate=N/A speed=18.1x    frame=25695 fps=433 q=-0.0 size=N/A time=00:17:51.69 bitrate=N/A speed=18.1x    frame=25952 fps=434 q=-0.0 size=N/A time=00:18:02.41 bitrate=N/A speed=18.1x    frame=26175 fps=434 q=-0.0 size=N/A time=00:18:11.71 bitrate=N/A speed=18.1x    frame=26398 fps=434 q=-0.0 size=N/A time=00:18:21.01 bitrate=N/A speed=18.1x    frame=26627 fps=434 q=-0.0 size=N/A time=00:18:30.56 bitrate=N/A speed=18.1x    frame=26876 fps=434 q=-0.0 size=N/A time=00:18:40.95 bitrate=N/A speed=18.1x    frame=27110 fps=434 q=-0.0 size=N/A time=00:18:50.71 bitrate=N/A speed=18.1x    frame=27343 fps=434 q=-0.0 size=N/A time=00:19:00.43 bitrate=N/A speed=18.1x    frame=27552 fps=434 q=-0.0 size=N/A time=00:19:09.14 bitrate=N/A speed=18.1x    frame=27809 fps=435 q=-0.0 size=N/A time=00:19:19.86 bitrate=N/A speed=18.1x    frame=28049 fps=435 q=-0.0 size=N/A time=00:19:29.87 bitrate=N/A speed=18.1x    frame=28275 fps=435 q=-0.0 size=N/A time=00:19:39.30 bitrate=N/A speed=18.1x    frame=28477 fps=435 q=-0.0 size=N/A time=00:19:47.72 bitrate=N/A speed=18.1x    frame=28706 fps=435 q=-0.0 size=N/A time=00:19:57.27 bitrate=N/A speed=18.1x    frame=28953 fps=435 q=-0.0 size=N/A time=00:20:07.58 bitrate=N/A speed=18.1x    frame=29166 fps=435 q=-0.0 size=N/A time=00:20:16.46 bitrate=N/A speed=18.1x    frame=29393 fps=435 q=-0.0 size=N/A time=00:20:25.93 bitrate=N/A speed=18.1x    frame=29601 fps=435 q=-0.0 size=N/A time=00:20:34.60 bitrate=N/A speed=18.1x    frame=29860 fps=435 q=-0.0 size=N/A time=00:20:45.41 bitrate=N/A speed=18.1x    frame=30097 fps=435 q=-0.0 size=N/A time=00:20:55.29 bitrate=N/A speed=18.2x    frame=30312 fps=435 q=-0.0 size=N/A time=00:21:04.26 bitrate=N/A speed=18.2x    frame=30574 fps=436 q=-0.0 size=N/A time=00:21:15.19 bitrate=N/A speed=18.2x    frame=30816 fps=436 q=-0.0 size=N/A time=00:21:25.28 bitrate=N/A speed=18.2x    frame=31072 fps=436 q=-0.0 size=N/A time=00:21:35.96 bitrate=N/A speed=18.2x    frame=31344 fps=437 q=-0.0 size=N/A time=00:21:47.30 bitrate=N/A speed=18.2x    frame=31605 fps=438 q=-0.0 size=N/A time=00:21:58.19 bitrate=N/A speed=18.3x    frame=31844 fps=438 q=-0.0 size=N/A time=00:22:08.16 bitrate=N/A speed=18.3x    frame=32078 fps=438 q=-0.0 size=N/A time=00:22:17.91 bitrate=N/A speed=18.3x    frame=32323 fps=438 q=-0.0 size=N/A time=00:22:28.13 bitrate=N/A speed=18.3x    frame=32478 fps=437 q=-0.0 size=N/A time=00:22:34.60 bitrate=N/A speed=18.2x    frame=32621 fps=436 q=-0.0 size=N/A time=00:22:40.56 bitrate=N/A speed=18.2x    frame=32778 fps=435 q=-0.0 size=N/A time=00:22:47.11 bitrate=N/A speed=18.1x    frame=33002 fps=435 q=-0.0 size=N/A time=00:22:56.45 bitrate=N/A speed=18.2x    frame=33157 fps=434 q=-0.0 size=N/A time=00:23:02.92 bitrate=N/A speed=18.1x    frame=33330 fps=434 q=-0.0 size=N/A time=00:23:10.13 bitrate=N/A speed=18.1x    frame=33541 fps=433 q=-0.0 size=N/A time=00:23:18.93 bitrate=N/A speed=18.1x    frame=33754 fps=433 q=-0.0 size=N/A time=00:23:27.82 bitrate=N/A speed=18.1x    frame=33899 fps=432 q=-0.0 size=N/A time=00:23:33.87 bitrate=N/A speed=  18x    frame=34052 fps=431 q=-0.0 size=N/A time=00:23:40.25 bitrate=N/A speed=  18x    frame=34204 fps=431 q=-0.0 size=N/A time=00:23:46.59 bitrate=N/A speed=  18x    frame=34364 fps=430 q=-0.0 size=N/A time=00:23:53.26 bitrate=N/A speed=17.9x    frame=34521 fps=429 q=-0.0 size=N/A time=00:23:59.81 bitrate=N/A speed=17.9x    [Parsed_psnr_10 @ 000001f9f2e8f240] PSNR y:47.983073 u:50.498592 v:49.932676 average:48.605673 min:40.508885 max:inf
[out#0/null @ 000001f9e5dd67c0] video:14933KiB audio:271812KiB subtitle:0KiB other streams:0KiB global headers:0KiB muxing overhead: unknown
frame=34754 fps=429 q=-0.0 Lsize=N/A time=00:24:09.53 bitrate=N/A speed=17.9x    
